<svg width="1000" height="300" viewBox="0 0 1000 300" fill="none" xmlns="http://www.w3.org/2000/svg">
    <g id="Frame 1">
        <!-- <rect width="1000" height="300" fill="white"/> -->
        <g id="name">
            <path fill-rule="evenodd" clip-rule="evenodd"
                d="M574.96 92.664C574.96 97.016 575.088 101.325 575.344 105.592H505.584V116.6H575.728L576.368 131.704C577.136 144.419 578.544 157.005 580.592 169.464C581.531 174.584 582.64 179.619 583.92 184.568C584.859 188.152 586.096 191.608 587.632 194.936C588.656 197.325 589.893 199.629 591.344 201.848C592.539 203.555 593.904 205.133 595.44 206.584C597.915 208.717 600.816 209.784 604.144 209.784C605.851 209.699 607.472 209.144 609.008 208.12C610.288 207.181 611.44 206.072 612.464 204.792C614.341 202.403 615.92 199.843 617.2 197.112C618.768 194.047 620.271 190.867 621.66 187.564C621.943 186.997 622.466 185.667 622.66 185.064C622.66 185.064 623.263 181.748 623.334 181.176C623.439 180.332 623.563 179.339 623.66 178.954C623.745 178.937 623.83 178.921 623.915 178.906C623.986 178.892 624.057 178.879 624.128 178.866C625.78 178.561 627.288 178.283 628.66 176.454C629.948 174.737 630.253 173.056 630.524 171.56C630.569 171.314 630.613 171.073 630.66 170.837C630.374 171.171 630.088 171.568 629.779 171.998C629.007 173.072 628.088 174.349 626.66 175.337C624.66 176.72 623.957 176.689 623.957 176.689C624.16 174.337 623.957 172.848 622.66 170.837C621.363 168.826 617.66 167.454 614.66 168.337C611.66 169.22 610.16 170.837 610.16 173.337C610.16 175.837 613.16 178.337 615.16 178.954C616.899 179.49 617.504 179.472 617.961 179.458C618.03 179.456 618.095 179.454 618.16 179.454L614.74 186.401C613.272 188.562 611.703 190.553 610.032 192.376C608.837 193.4 607.472 193.784 605.936 193.528C603.803 192.333 602.267 190.584 601.328 188.28C599.024 181.197 597.317 173.944 596.208 166.52C594.587 155.853 593.52 145.101 593.008 134.264L592.24 116.6H619.376V105.592H612.208L613.744 103.8C611.611 101.496 609.605 99.1067 607.728 96.632L603.12 91L591.472 97.144C591.301 95.6933 591.259 94.2 591.344 92.664H574.96ZM591.472 97.272C591.557 97.528 591.685 97.7413 591.856 97.912C594.245 101.069 597.147 103.629 600.56 105.592H591.728C591.557 102.861 591.472 100.088 591.472 97.272ZM619.2 176.793C619.456 175.769 619.57 175.316 619.62 174.855C619.66 174.489 619.66 174.119 619.66 173.454C619.66 171.454 618.16 170.454 617.16 170.454C616.16 170.454 614.66 170.454 613.66 171.954C612.66 173.454 613.16 174.72 614.66 175.837C616.16 176.954 618.16 176.954 619.16 176.954L619.2 176.793Z"
                fill="url(#paint0_linear_0_1)" />
            <path
                d="M512.112 150.648V186.744H519.408C521.541 186.829 523.333 186.104 524.784 184.568C525.979 183.117 526.576 181.411 526.576 179.448V159.992H557.04V186.616H564.336C566.213 186.701 567.877 186.147 569.328 184.952C570.864 183.331 571.632 181.411 571.632 179.192V150.648H512.112Z"
                fill="url(#paint1_linear_0_1)" />
            <path
                d="M502 199.928L504.304 207.096C512.325 205.731 520.219 203.683 527.984 200.952C531.056 199.843 533.957 198.435 536.688 196.728C538.907 195.448 540.955 193.869 542.832 191.992C548.72 195.661 554.821 198.947 561.136 201.848C565.744 203.896 570.523 205.432 575.472 206.456L578.544 199.672C572.059 196.344 565.701 192.803 559.472 189.048C555.632 186.744 551.792 184.483 547.952 182.264C548.549 179.533 548.848 176.717 548.848 173.816V163.064H534.64V172.408C534.64 175.48 534.171 178.467 533.232 181.368C532.037 184.269 530.245 186.744 527.856 188.792C524.272 191.523 520.389 193.656 516.208 195.192C511.515 196.984 506.779 198.563 502 199.928Z"
                fill="url(#paint2_linear_0_1)" />
            <path d="M509.296 136.056V145.4H574.192V136.056H509.296Z" fill="url(#paint3_linear_0_1)" />
            <path d="M514.16 121.976V131.448H569.84V121.976H514.16Z" fill="url(#paint4_linear_0_1)" />
            <path fill-rule="evenodd" clip-rule="evenodd"
                d="M654.16 197.624L660.048 208.376C671.312 204.365 682.448 200.056 693.456 195.448L692.944 187.768L673.872 192.504V176.376C680.016 181.069 686.928 183.971 694.608 185.08L696.144 180.6V192.376C696.229 194.509 695.333 196.173 693.456 197.368L699.6 208.12C711.376 203.768 723.109 199.245 734.8 194.552L734.544 186.872L713.04 192.248V176.504C719.013 181.197 725.797 184.056 733.392 185.08L735.568 178.808C736.251 186.232 738.171 193.229 741.328 199.8C742.608 202.36 744.443 204.536 746.832 206.328C749.051 207.949 751.568 208.845 754.384 209.016C755.664 208.845 756.859 208.333 757.968 207.48C759.589 206.115 760.997 204.621 762.192 203C765.605 198.136 768.236 193.488 770.444 188.064C770.564 187.345 770.718 186.625 770.833 186.092C770.877 185.884 770.916 185.704 770.944 185.564C770.985 185.361 771.048 184.833 771.12 184.235C771.225 183.361 771.347 182.337 771.444 181.954C771.601 181.924 771.757 181.895 771.911 181.866C773.564 181.561 775.072 181.283 776.444 179.454C777.732 177.737 778.037 176.056 778.308 174.561C778.353 174.314 778.397 174.073 778.444 173.837C778.158 174.171 777.872 174.568 777.563 174.998C776.791 176.072 775.872 177.349 774.444 178.337C772.444 179.72 771.741 179.689 771.741 179.689C771.944 177.337 771.741 175.848 770.444 173.837C769.147 171.826 765.444 170.454 762.444 171.337C759.444 172.22 757.944 173.837 757.944 176.337C757.944 178.837 760.944 181.337 762.944 181.954C764.683 182.49 765.288 182.472 765.745 182.458C765.814 182.456 765.879 182.454 765.944 182.454L763.912 187.641L763.902 187.64C762.707 189.603 761.339 191.395 759.888 193.016C759.035 194.04 757.968 194.595 756.688 194.68C755.835 194.595 755.195 194.211 754.768 193.528C754 192.589 753.488 191.523 753.232 190.328C752.293 187.597 751.696 184.739 751.44 181.752C750.928 177.229 750.672 172.621 750.672 167.928C750.501 160.845 750.416 153.677 750.416 146.424H734.544V159.736C728.997 156.408 723.621 152.909 718.416 149.24L713.04 156.792V146.552H696.144V159.736C690.341 156.323 684.709 152.696 679.248 148.856L673.872 156.408V146.296H656.976V192.376C656.805 194.509 655.867 196.259 654.16 197.624ZM694.352 166.264L696.144 162.68V178.296C690.427 174.797 684.88 171.043 679.504 167.032L673.872 174.712V158.2C676.773 160.333 679.931 162.04 683.344 163.32C686.928 164.6 690.597 165.581 694.352 166.264ZM734.8 169.336C734.885 172.493 735.141 175.608 735.568 178.68C729.68 175.011 723.877 171.256 718.16 167.416L713.04 174.328V158.456C719.184 162.979 726.053 165.752 733.648 166.776L734.544 163.96C734.544 165.837 734.629 167.629 734.8 169.336ZM767.404 177.855C767.351 178.339 767.229 178.815 766.944 179.954C765.944 179.954 763.944 179.954 762.444 178.837C760.944 177.72 760.444 176.454 761.444 174.954C762.444 173.454 763.944 173.454 764.944 173.454C765.944 173.454 767.444 174.454 767.444 176.454C767.444 177.119 767.444 177.489 767.404 177.855Z"
                fill="url(#paint5_linear_0_1)" />
            <path
                d="M656.464 99.192V142.456H738.64C741.285 142.541 743.888 142.328 746.448 141.816C748.411 141.475 750.245 140.792 751.952 139.768C754.427 138.061 755.707 135.672 755.792 132.6V98.424H709.2V108.408H738.64V115.448H710.224V125.304H738.64V132.6H673.872V125.304H701.776V115.448H673.872V105.848C678.48 106.616 683.173 106.744 687.952 106.232C693.413 105.549 698.875 104.483 704.336 103.032L700.496 91.896C685.989 95.48 671.312 97.912 656.464 99.192Z"
                fill="url(#paint6_linear_0_1)" />
        </g>
        <g id="logo-d">
            <path
                d="M464.615 215.421C464.615 215.421 449.508 228.114 448.596 229.526C447 232 446.5 237.5 448.596 240.811C449.58 242.366 451.5 242.5 454.25 241.752C457 241.003 460.846 237.99 462.731 235.169C464.615 232.348 466.5 228.67 466.5 224.824C466.5 220 465.5 217 464.615 215.421Z"
                fill="url(#paint7_linear_0_1)" />
            <path fill-rule="evenodd" clip-rule="evenodd"
                d="M222.442 193.791L221.5 204.136C226.84 203.195 239.781 203.007 248.827 209.778C254.013 213.66 260.983 219.321 267.464 224.586C275.114 230.801 282.084 236.463 284.635 237.99C289.346 240.811 299.712 246.454 307.25 246.454C314.788 246.454 330 244.5 337.404 241.752C344.808 239.003 346.029 238.092 350.091 236.274C355.293 233.946 359.787 231.935 361.904 231.407C364.919 230.655 368.814 230.467 370.385 230.467C369.442 233.602 367.935 240.623 369.442 243.632C371.327 247.394 387.346 261.5 389.231 261.5H395.827C395.513 259.306 394.131 254.353 391.115 252.096C389.73 251.059 387.582 249.896 385.372 248.699C381.566 246.638 377.577 244.477 376.981 242.692C376.227 240.435 376.667 236.109 376.981 234.228L379.808 227.646L409.962 241.752L398.654 252.096C402.423 251.783 410.715 250.779 413.731 249.275C417.5 247.394 426.5 243.5 435.404 233.288C444.308 223.076 445.769 218.242 446.712 211.659C447.465 206.393 448.5 195.5 447.654 192.851C447.063 191 445.697 190.044 444.827 190.03C443 190 442.036 190.441 441.058 191.911C440 193.5 439.792 196.813 439.118 199.987C438.444 203.161 437.947 208.14 435.404 214.48C432.861 220.821 430.062 225.454 426.923 228.586C423.784 231.719 420.327 232.348 417.5 231.407C415.238 230.655 401.5 221.063 399.596 221.063C397.692 221.063 393.5 225 393.5 225L385.462 219.182C385.462 219.182 384.923 212.937 385.462 210.719C386 208.5 387.912 206.581 390.173 205.076C391.155 204.423 392.593 203.656 394.169 202.814C397.129 201.235 399.5 200.5 402.423 197.553C405.346 194.606 410.713 184.197 408.077 181.566C405.441 178.936 397.712 183.917 393.942 187.209C390.173 190.5 386.769 194.748 382.635 200.374C378.5 206 376 211 374.154 212.599C372.308 214.199 370.615 213.699 367.558 212.599C364.5 211.5 358.615 207.771 355.308 204.136C352 200.5 348.5 189.5 346.827 188.149C345.154 186.798 340.692 188.417 338.346 187.209C336 186 334.2 183.823 332.692 181.566C332.411 181.145 332.151 180.745 331.902 180.363C330.485 178.184 327.903 174.101 327 173.5C326.097 172.899 321.071 172.476 319.5 172.162C319.814 173.416 321.008 176.488 323.269 178.745C325.531 181.002 327.981 185.955 328.923 188.149C328.923 188.149 286 190.5 278.981 190.03C271.962 189.56 267.5 188 267 185.5C266.5 183 268.615 171.222 268.615 171.222C268.615 171.222 259.5 174.348 258.25 175.924C257 177.5 263.904 199.51 263.904 202.255C263.904 205 261.5 205 256.5 201C251.5 197 247.5 195.5 241.288 194.732C235.077 193.964 227.154 194.105 222.442 193.791ZM275.212 209.778C277.096 212.599 281.808 219.182 285.577 222.944C290.288 227.646 299.115 233.457 306.308 234.228C313.5 235 317.115 234.194 330.808 230.467C344.5 226.74 358.135 225.626 358.135 221.063C358.135 216.5 351.5 211 344.942 206.017C338.385 201.033 331.902 199.5 325.154 198.493C318.405 197.487 299 197.987 295 198.493C291 199 286.708 200.938 283.692 203.195C280.677 205.452 276.782 208.524 275.212 209.778Z"
                fill="url(#paint8_linear_0_1)" />
            <path
                d="M445.5 133C450.5 127.5 458.019 122.635 462.731 119.5C462.731 122.635 462.869 128.212 461.788 133.606C460.707 139 459 141.5 457.5 144.5C456 147.5 453 151.5 451 153.5C449 155.5 447.5 157.5 444 159.5C440.5 161.5 436.346 161.818 434.462 161.818C434.462 159.937 433.808 157.447 435.404 151.474C437 145.5 440.5 138.5 445.5 133Z"
                fill="url(#paint9_linear_0_1)" />
            <path
                d="M381.692 152.414C380.885 153.828 380.885 160.136 381.692 161.818C382.5 163.5 384.142 164.639 386.404 164.639C389.231 164.639 394.692 160.351 399.596 156.175C404.5 152 408 148.5 408.077 143.95C408.154 139.401 406.821 136.114 406.192 133.606C403.679 133.919 398.088 134.923 395.827 136.427C394.214 137.5 393.247 139.708 392.874 141.354C392.5 143 392.221 143.788 391.115 144.891C390.01 145.994 389.722 146.565 389.111 147.532C388.5 148.5 388 149.5 386.404 150.533C384.808 151.566 382.5 151 381.692 152.414Z"
                fill="url(#paint10_linear_0_1)" />
        </g>
        <g id="logo-u">
            <path
                d="M222.885 84.0795C222.885 84.0795 237.992 71.3863 238.904 69.9735C240.5 67.5 241 62 238.904 58.6888C237.92 57.1345 236 57 233.25 57.7483C230.5 58.4967 226.654 61.51 224.769 64.3312C222.885 67.1524 221 70.8297 221 74.6755C221 79.5 222 82.5 222.885 84.0795Z"
                fill="url(#paint11_linear_0_1)" />
            <path fill-rule="evenodd" clip-rule="evenodd"
                d="M465.058 105.709L466 95.3642C460.66 96.3046 447.719 96.4927 438.673 89.7218C433.487 85.8403 426.517 80.1786 420.036 74.9138C412.386 68.699 405.416 63.0373 402.865 61.5099C398.154 58.6887 387.788 53.0463 380.25 53.0463C372.712 53.0463 357.5 55 350.096 57.7483C342.692 60.4967 341.471 61.4084 337.409 63.2259C332.207 65.5538 327.713 67.5646 325.596 68.0927C322.581 68.845 318.686 69.0331 317.115 69.0331C318.058 65.8984 319.565 58.8768 318.058 55.8675C316.173 52.106 300.154 38 298.269 38H291.673C291.987 40.1943 293.369 45.147 296.385 47.404C297.77 48.4406 299.918 49.6041 302.128 50.8013C305.934 52.8625 309.923 55.0233 310.519 56.8079C311.273 59.0649 310.833 63.3907 310.519 65.2715L307.692 71.8543L277.538 57.7483L288.846 47.404C285.077 47.7174 276.785 48.7205 273.769 50.2252C270 52.106 261 56 252.096 66.2119C243.192 76.4238 241.731 81.2583 240.788 87.841C240.035 93.1073 239 104 239.846 106.649C240.437 108.5 241.803 109.456 242.673 109.47C244.5 109.5 245.464 109.059 246.442 107.589C247.5 106 247.708 102.687 248.382 99.5126C249.056 96.3386 249.553 91.3603 252.096 85.0199C254.639 78.6794 257.438 74.0463 260.577 70.9139C263.716 67.7815 267.173 67.1523 270 68.0927C272.262 68.845 286 78.4371 287.904 78.4371C289.808 78.4371 294 74.5 294 74.5L302.038 80.3179C302.038 80.3179 302.577 86.5629 302.038 88.7814C301.5 91 299.588 92.9192 297.327 94.4238C296.345 95.0773 294.907 95.8444 293.331 96.6855C290.371 98.2651 288 99 285.077 101.947C282.154 104.894 276.787 115.303 279.423 117.934C282.059 120.564 289.788 115.583 293.558 112.291C297.327 109 300.731 104.752 304.865 99.1259C309 93.5 311.5 88.5 313.346 86.9007C315.192 85.3014 316.885 85.8014 319.942 86.9007C323 88 328.885 91.7285 332.192 95.3643C335.5 99 339 110 340.673 111.351C342.346 112.702 346.808 111.083 349.154 112.291C351.5 113.5 353.3 115.677 354.808 117.934C355.089 118.355 355.349 118.755 355.598 119.137C357.015 121.316 359.597 125.399 360.5 126C361.403 126.601 366.429 127.024 368 127.338C367.686 126.084 366.492 123.012 364.231 120.755C361.969 118.498 359.519 113.545 358.577 111.351C358.577 111.351 401.5 109 408.519 109.47C415.538 109.94 420 111.5 420.5 114C421 116.5 418.885 128.278 418.885 128.278C418.885 128.278 428 125.152 429.25 123.576C430.5 122 423.596 99.9901 423.596 97.2451C423.596 94.5 426 94.5 431 98.5C436 102.5 440 104 446.212 104.768C452.423 105.536 460.346 105.395 465.058 105.709ZM412.288 89.7219C410.404 86.9007 405.692 80.3179 401.923 76.5563C397.212 71.8543 388.385 66.0431 381.192 65.2716C374 64.5 370.385 65.3064 356.692 69.0331C343 72.7598 329.365 73.8742 329.365 78.4371C329.365 83 336 88.5 342.558 93.4835C349.115 98.4669 355.598 100 362.346 101.007C369.095 102.013 388.5 101.513 392.5 101.007C396.5 100.5 400.792 98.5616 403.808 96.3047C406.823 94.0477 410.718 90.9757 412.288 89.7219Z"
                fill="url(#paint12_linear_0_1)" />
            <path
                d="M242 166.5C237 172 229.481 176.865 224.769 180C224.769 176.865 224.631 171.288 225.712 165.894C226.793 160.5 228.5 158 230 155C231.5 152 234.5 148 236.5 146C238.5 144 240 142 243.5 140C247 138 251.154 137.682 253.038 137.682C253.038 139.563 253.692 142.053 252.096 148.026C250.5 154 247 161 242 166.5Z"
                fill="url(#paint13_linear_0_1)" />
            <path
                d="M305.808 147.086C306.615 145.672 306.615 139.364 305.808 137.682C305 136 303.358 134.861 301.096 134.861C298.269 134.861 292.808 139.149 287.904 143.325C283 147.5 279.5 151 279.423 155.55C279.346 160.099 280.679 163.386 281.308 165.894C283.821 165.581 289.412 164.577 291.673 163.073C293.286 162 294.253 159.792 294.626 158.146C295 156.5 295.279 155.712 296.385 154.609C297.49 153.506 297.778 152.935 298.389 151.968C299 151 299.5 150 301.096 148.967C302.692 147.934 305 148.5 305.808 147.086Z"
                fill="url(#paint14_linear_0_1)" />
        </g>
    </g>
    <defs>
        <linearGradient id="paint0_linear_0_1" x1="502.16" y1="150.064" x2="760.16" y2="150.064"
            gradientUnits="userSpaceOnUse">
            <stop stop-color="#8E7CC3" />
            <stop offset="1" stop-color="#C27BA0" />
        </linearGradient>
        <linearGradient id="paint1_linear_0_1" x1="502.16" y1="150.064" x2="760.16" y2="150.064"
            gradientUnits="userSpaceOnUse">
            <stop stop-color="#8E7CC3" />
            <stop offset="1" stop-color="#C27BA0" />
        </linearGradient>
        <linearGradient id="paint2_linear_0_1" x1="502.16" y1="150.064" x2="760.16" y2="150.064"
            gradientUnits="userSpaceOnUse">
            <stop stop-color="#8E7CC3" />
            <stop offset="1" stop-color="#C27BA0" />
        </linearGradient>
        <linearGradient id="paint3_linear_0_1" x1="502.16" y1="150.064" x2="760.16" y2="150.064"
            gradientUnits="userSpaceOnUse">
            <stop stop-color="#8E7CC3" />
            <stop offset="1" stop-color="#C27BA0" />
        </linearGradient>
        <linearGradient id="paint4_linear_0_1" x1="502.16" y1="150.064" x2="760.16" y2="150.064"
            gradientUnits="userSpaceOnUse">
            <stop stop-color="#8E7CC3" />
            <stop offset="1" stop-color="#C27BA0" />
        </linearGradient>
        <linearGradient id="paint5_linear_0_1" x1="502.16" y1="150.064" x2="760.16" y2="150.064"
            gradientUnits="userSpaceOnUse">
            <stop stop-color="#8E7CC3" />
            <stop offset="1" stop-color="#C27BA0" />
        </linearGradient>
        <linearGradient id="paint6_linear_0_1" x1="502.16" y1="150.064" x2="760.16" y2="150.064"
            gradientUnits="userSpaceOnUse">
            <stop stop-color="#8E7CC3" />
            <stop offset="1" stop-color="#C27BA0" />
        </linearGradient>
        <linearGradient id="paint7_linear_0_1" x1="467" y1="262" x2="403" y2="120" gradientUnits="userSpaceOnUse">
            <stop stop-color="#C27BA0" />
            <stop offset="1" stop-color="#DE98D3" />
        </linearGradient>
        <linearGradient id="paint8_linear_0_1" x1="467" y1="262" x2="403" y2="120" gradientUnits="userSpaceOnUse">
            <stop stop-color="#C27BA0" />
            <stop offset="1" stop-color="#DE98D3" />
        </linearGradient>
        <linearGradient id="paint9_linear_0_1" x1="467" y1="262" x2="403" y2="120" gradientUnits="userSpaceOnUse">
            <stop stop-color="#C27BA0" />
            <stop offset="1" stop-color="#DE98D3" />
        </linearGradient>
        <linearGradient id="paint10_linear_0_1" x1="467" y1="262" x2="403" y2="120" gradientUnits="userSpaceOnUse">
            <stop stop-color="#C27BA0" />
            <stop offset="1" stop-color="#DE98D3" />
        </linearGradient>
        <linearGradient id="paint11_linear_0_1" x1="221" y1="38" x2="287.5" y2="180" gradientUnits="userSpaceOnUse">
            <stop stop-color="#8E7CC3" />
            <stop offset="1" stop-color="#AE98EE" />
        </linearGradient>
        <linearGradient id="paint12_linear_0_1" x1="221" y1="38" x2="287.5" y2="180" gradientUnits="userSpaceOnUse">
            <stop stop-color="#8E7CC3" />
            <stop offset="1" stop-color="#AE98EE" />
        </linearGradient>
        <linearGradient id="paint13_linear_0_1" x1="221" y1="38" x2="287.5" y2="180" gradientUnits="userSpaceOnUse">
            <stop stop-color="#8E7CC3" />
            <stop offset="1" stop-color="#AE98EE" />
        </linearGradient>
        <linearGradient id="paint14_linear_0_1" x1="221" y1="38" x2="287.5" y2="180" gradientUnits="userSpaceOnUse">
            <stop stop-color="#8E7CC3" />
            <stop offset="1" stop-color="#AE98EE" />
        </linearGradient>
    </defs>

    <style>
        @keyframes animate-svg-fill {
            0% {
                fill-opacity: 0;
            }

            100% {
                fill-opacity: 1;
            }
        }

        @keyframes animate-svg-stroke-100 {
            0% {
                stroke-dashoffset: 100;
                stroke-dasharray: 100;
            }

            100% {
                stroke-dashoffset: 0;
                stroke-dasharray: 100;
            }
        }

        @keyframes animate-svg-stroke {
            0% {
                stroke-dashoffset: 200;
                stroke-dasharray: 200;
            }

            100% {
                stroke-dashoffset: 0;
                stroke-dasharray: 200;
            }
        }

        @keyframes animate-svg-stroke-300 {
            0% {
                stroke-dashoffset: 300;
                stroke-dasharray: 300;
            }

            100% {
                stroke-dashoffset: 0;
                stroke-dasharray: 300;
            }
        }

        @keyframes animate-svg-stroke-400 {
            0% {
                stroke-dashoffset: 400;
                stroke-dasharray: 400;
            }

            100% {
                stroke-dashoffset: 0;
                stroke-dasharray: 400;
            }
        }

        @keyframes animate-svg-stroke-500 {
            0% {
                stroke-dashoffset: 500;
                stroke-dasharray: 500;
            }

            100% {
                stroke-dashoffset: 0;
                stroke-dasharray: 500;
            }
        }

        @keyframes animate-svg-stroke-700 {
            0% {
                stroke-dashoffset: 700;
                stroke-dasharray: 700;
            }

            100% {
                stroke-dashoffset: 0;
                stroke-dasharray: 700;
            }
        }

        @keyframes animate-svg-stroke-900 {
            0% {
                stroke-dashoffset: 900;
                stroke-dasharray: 900;
            }

            100% {
                stroke-dashoffset: 0;
                stroke-dasharray: 900;
            }
        }

        @keyframes animate-svg-stroke-900f {
            0% {
                stroke-dashoffset: 900;
                stroke-dasharray: 900;
            }

            100% {
                stroke-dashoffset: 0;
                stroke-dasharray: 900;
            }
        }

        @keyframes animate-svg-stroke-fade {
            0% {
                stroke: #FFFFFF;
            }

            100% {
                stroke: transparent;
            }
        }


        #name {
            stroke: #FFFFFF;
        }

        #logo-u {
            stroke: #FFFFFF;
        }

        #logo-d {
            stroke: #FFFFFF;
        }

        #logo-u>path:nth-child(1) {/* up最小点 */
            animation:
                animate-svg-fill 0.7s cubic-bezier(0.47, 0, 0.745, 0.715) 1.3s both,
                animate-svg-stroke-100 1.5s cubic-bezier(0.47, 0, 0.745, 0.715) 0.2s both,
                animate-svg-stroke-fade 0.5s cubic-bezier(0.47, 0, 0.745, 0.715) 2.0s both;
        }

        #logo-u>path:nth-child(2) { /* up主体 */
            animation:
                animate-svg-fill 0.7s cubic-bezier(0.47, 0, 0.745, 0.715) 1.3s both,
                animate-svg-stroke-900 1.5s cubic-bezier(0.47, 0, 0.745, 0.715) 0.3s both,
                animate-svg-stroke-fade 0.5s cubic-bezier(0.47, 0, 0.745, 0.715) 2.0s both;
        }

        #logo-u>path:nth-child(3) { /* up最大点 */
            animation:
                animate-svg-fill 0.7s cubic-bezier(0.47, 0, 0.745, 0.715) 1.3s both,
                animate-svg-stroke 1.5s cubic-bezier(0.47, 0, 0.745, 0.715) 0.6s both,
                animate-svg-stroke-fade 0.5s cubic-bezier(0.47, 0, 0.745, 0.715) 2.0s both;
        }

        #logo-u>path:nth-child(4) { /* up中等点 */
            animation:
                animate-svg-fill 0.7s cubic-bezier(0.47, 0, 0.745, 0.715) 1.3s both,
                animate-svg-stroke-100 1.5s cubic-bezier(0.47, 0, 0.745, 0.715) 0.6s both,
                animate-svg-stroke-fade 0.5s cubic-bezier(0.47, 0, 0.745, 0.715) 2.0s both;
        }

        #logo-d>path:nth-child(1) {/* up最小点 */
            animation:
                animate-svg-fill 0.7s cubic-bezier(0.47, 0, 0.745, 0.715) 1.3s both,
                animate-svg-stroke-100 1.5s cubic-bezier(0.47, 0, 0.745, 0.715) 0.2s both,
                animate-svg-stroke-fade 0.5s cubic-bezier(0.47, 0, 0.745, 0.715) 2.0s both;
        }

        #logo-d>path:nth-child(2) { /* up主体 */
            animation:
                animate-svg-fill 0.7s cubic-bezier(0.47, 0, 0.745, 0.715) 1.3s both,
                animate-svg-stroke-900 1.5s cubic-bezier(0.47, 0, 0.745, 0.715) 0.3s both,
                animate-svg-stroke-fade 0.5s cubic-bezier(0.47, 0, 0.745, 0.715) 2.0s both;
        }

        #logo-d>path:nth-child(3) { /* up最大点 */
            animation:
                animate-svg-fill 0.7s cubic-bezier(0.47, 0, 0.745, 0.715) 1.3s both,
                animate-svg-stroke 1.5s cubic-bezier(0.47, 0, 0.745, 0.715) 0.6s both,
                animate-svg-stroke-fade 0.5s cubic-bezier(0.47, 0, 0.745, 0.715) 2.0s both;
        }

        #logo-d>path:nth-child(4) { /* up中等点 */
            animation:
                animate-svg-fill 0.7s cubic-bezier(0.47, 0, 0.745, 0.715) 1.3s both,
                animate-svg-stroke-100 1.5s cubic-bezier(0.47, 0, 0.745, 0.715) 0.6s both,
                animate-svg-stroke-fade 0.5s cubic-bezier(0.47, 0, 0.745, 0.715) 2.0s both;
        }

        #name>path:nth-child(1) {
            /* 贰.戈 */
            animation:
                animate-svg-fill 0.7s cubic-bezier(0.47, 0, 0.745, 0.715) 1.3s both,
                animate-svg-stroke-700 1.5s cubic-bezier(0.47, 0, 0.745, 0.715) 0.2s both,
                animate-svg-stroke-fade 0.5s cubic-bezier(0.47, 0, 0.745, 0.715) 2.0s both;
        }

        #name>path:nth-child(5) {
            /* 贰.二.上面一横 */
            animation:
                animate-svg-fill 0.7s cubic-bezier(0.47, 0, 0.745, 0.715) 1.3s both,
                animate-svg-stroke 1.5s cubic-bezier(0.47, 0, 0.745, 0.715) 0.4s both,
                animate-svg-stroke-fade 0.5s cubic-bezier(0.47, 0, 0.745, 0.715) 2.0s both;
        }

        #name>path:nth-child(4) {
            /* 贰.二.下面一横 */
            animation:
                animate-svg-fill 0.7s cubic-bezier(0.47, 0, 0.745, 0.715) 1.3s both,
                animate-svg-stroke 1.5s cubic-bezier(0.47, 0, 0.745, 0.715) 0.4s both,
                animate-svg-stroke-fade 0.5s cubic-bezier(0.47, 0, 0.745, 0.715) 2.0s both;
        }

        #name>path:nth-child(2) {
            /* 贰.贝.上部 */
            animation:
                animate-svg-fill 0.7s cubic-bezier(0.47, 0, 0.745, 0.715) 1.3s both,
                animate-svg-stroke-300 1.5s cubic-bezier(0.47, 0, 0.745, 0.715) 0.4s both,
                animate-svg-stroke-fade 0.5s cubic-bezier(0.47, 0, 0.745, 0.715) 2.0s both;
        }

        #name>path:nth-child(3) {
            /* 贰.贝.下部人 */
            animation:
                animate-svg-fill 0.7s cubic-bezier(0.47, 0, 0.745, 0.715) 1.3s both,
                animate-svg-stroke-300 1.5s cubic-bezier(0.47, 0, 0.745, 0.715) 0.4s both,
                animate-svg-stroke-fade 0.5s cubic-bezier(0.47, 0, 0.745, 0.715) 2.0s both;
        }

        #name>path:nth-child(7) {
            /* 鼠.上部 */
            animation:
                animate-svg-fill 0.7s cubic-bezier(0.47, 0, 0.745, 0.715) 1.3s both,
                animate-svg-stroke-700 1.5s cubic-bezier(0.47, 0, 0.745, 0.715) 0.2s both,
                animate-svg-stroke-fade 0.5s cubic-bezier(0.47, 0, 0.745, 0.715) 2.0s both;
        }

        #name>path:nth-child(6) {
            /* 鼠.下部 */
            animation:
                animate-svg-fill 0.7s cubic-bezier(0.47, 0, 0.745, 0.715) 1.3s both,
                animate-svg-stroke-700 1.5s cubic-bezier(0.47, 0, 0.745, 0.715) 0.4s both,
                animate-svg-stroke-fade 0.5s cubic-bezier(0.47, 0, 0.745, 0.715) 2.0s both;
        }
    </style>
</svg>